<svg id="svg" version="1.1" width="2400" height="834" xmlns="http://www.w3.org/2000/svg" xmlns:xlink="http://www.w3.org/1999/xlink" style="display: block;"><g id="svgg"><path id="path0" d="M305.681 35.195 C 304.452 35.263,303.402 35.386,303.348 35.469 C 303.294 35.552,302.875 35.675,302.417 35.743 C 301.958 35.810,301.269 36.008,300.884 36.182 C 300.500 36.357,300.139 36.500,300.082 36.500 C 299.868 36.500,298.167 37.363,298.167 37.471 C 298.167 37.534,297.928 37.691,297.637 37.820 C 296.870 38.159,294.334 40.377,294.334 40.708 C 294.333 40.777,294.202 40.978,294.042 41.155 C 293.596 41.646,293.439 41.873,293.167 42.417 C 293.030 42.692,292.880 42.954,292.834 43.000 C 291.546 44.284,291.607 51.596,292.918 53.167 C 293.033 53.304,293.179 53.585,293.242 53.792 C 293.304 53.998,293.421 54.167,293.500 54.167 C 293.579 54.167,293.689 54.308,293.744 54.482 C 293.929 55.065,297.050 58.000,297.485 58.000 C 297.585 58.000,297.667 58.066,297.667 58.146 C 297.667 58.227,297.910 58.391,298.208 58.512 C 298.506 58.632,298.787 58.782,298.833 58.844 C 299.004 59.074,300.891 60.000,301.190 60.000 C 301.361 60.000,301.500 60.069,301.500 60.153 C 301.500 60.238,301.744 60.360,302.042 60.426 C 302.340 60.491,302.840 60.682,303.153 60.850 C 303.466 61.017,304.048 61.203,304.447 61.263 C 304.845 61.323,305.208 61.432,305.253 61.505 C 305.298 61.578,305.653 61.690,306.043 61.754 C 306.432 61.819,306.825 61.926,306.917 61.994 C 307.008 62.061,307.571 62.214,308.167 62.333 C 308.762 62.452,309.325 62.604,309.417 62.670 C 309.508 62.736,309.996 62.886,310.500 63.003 C 311.004 63.121,311.567 63.311,311.750 63.426 C 311.933 63.540,312.327 63.685,312.625 63.747 C 312.923 63.809,313.167 63.917,313.167 63.987 C 313.167 64.056,313.467 64.212,313.833 64.333 C 314.200 64.454,314.500 64.598,314.500 64.653 C 314.500 64.707,314.730 64.854,315.012 64.978 C 317.797 66.211,319.698 72.156,317.887 73.970 C 317.766 74.091,317.667 74.262,317.667 74.350 C 317.667 74.545,315.739 76.500,315.547 76.500 C 315.472 76.500,315.135 76.688,314.798 76.917 C 314.460 77.146,314.068 77.333,313.926 77.333 C 313.783 77.333,313.667 77.402,313.667 77.485 C 313.667 77.568,313.123 77.724,312.458 77.832 C 311.794 77.939,311.120 78.096,310.961 78.180 C 310.598 78.372,306.124 78.384,305.908 78.194 C 305.821 78.117,305.238 77.964,304.612 77.854 C 303.987 77.744,303.349 77.585,303.196 77.500 C 303.042 77.415,302.504 77.151,302.000 76.912 C 300.189 76.053,298.763 74.865,298.307 73.835 C 298.185 73.559,298.035 73.333,297.973 73.333 C 297.911 73.333,297.807 73.090,297.742 72.792 C 297.678 72.494,297.556 72.206,297.472 72.152 C 297.358 72.080,297.082 70.244,297.003 69.038 C 297.001 69.013,295.556 69.013,293.792 69.038 L 290.583 69.083 290.531 69.916 C 290.471 70.873,290.764 73.292,290.974 73.566 C 291.051 73.667,291.211 74.106,291.329 74.542 C 291.447 74.977,291.609 75.333,291.688 75.333 C 291.768 75.333,291.833 75.423,291.833 75.533 C 291.833 75.778,292.672 77.034,292.958 77.217 C 293.073 77.290,293.167 77.425,293.167 77.516 C 293.167 77.742,294.585 79.167,294.809 79.167 C 294.908 79.167,295.069 79.317,295.167 79.500 C 295.265 79.683,295.422 79.833,295.517 79.833 C 295.612 79.833,295.935 80.021,296.235 80.250 C 296.536 80.479,296.868 80.667,296.974 80.667 C 297.080 80.667,297.167 80.728,297.167 80.802 C 297.167 80.877,297.429 81.041,297.750 81.167 C 298.071 81.293,298.333 81.447,298.333 81.509 C 298.333 81.572,298.671 81.718,299.083 81.833 C 299.496 81.949,299.833 82.094,299.833 82.157 C 299.833 82.219,300.227 82.369,300.708 82.490 C 301.190 82.611,301.658 82.768,301.750 82.839 C 301.842 82.910,302.292 83.023,302.750 83.089 C 303.208 83.155,303.673 83.280,303.783 83.367 C 304.292 83.773,312.875 83.777,313.376 83.371 C 313.490 83.279,313.977 83.151,314.458 83.086 C 314.940 83.022,315.333 82.911,315.333 82.840 C 315.333 82.770,315.783 82.617,316.333 82.500 C 316.883 82.383,317.333 82.223,317.333 82.144 C 317.333 82.065,317.421 82.000,317.528 82.000 C 317.850 82.000,319.833 80.984,319.833 80.819 C 319.833 80.735,319.927 80.666,320.042 80.664 C 320.502 80.659,323.077 78.221,323.513 77.377 C 323.643 77.124,323.844 76.818,323.958 76.697 C 324.073 76.576,324.216 76.276,324.278 76.032 C 324.339 75.787,324.484 75.492,324.599 75.377 C 324.715 75.261,324.861 74.754,324.924 74.250 C 324.987 73.746,325.105 73.333,325.186 73.333 C 325.376 73.333,325.380 68.618,325.190 68.408 C 325.112 68.321,324.951 67.781,324.834 67.208 C 324.717 66.635,324.568 66.167,324.504 66.167 C 324.439 66.167,324.296 65.867,324.186 65.500 C 324.077 65.133,323.933 64.833,323.867 64.833 C 323.802 64.833,323.644 64.599,323.518 64.313 C 323.224 63.648,320.341 60.772,319.673 60.476 C 319.395 60.353,319.167 60.196,319.167 60.128 C 319.167 60.060,318.923 59.892,318.625 59.754 C 318.327 59.616,317.705 59.287,317.243 59.022 C 316.780 58.758,316.161 58.489,315.868 58.424 C 315.574 58.360,315.333 58.248,315.333 58.175 C 315.333 58.103,314.977 57.947,314.542 57.829 C 314.106 57.711,313.675 57.560,313.583 57.493 C 313.492 57.425,312.982 57.274,312.451 57.157 C 311.919 57.040,311.449 56.886,311.406 56.815 C 311.362 56.745,310.765 56.593,310.080 56.478 C 309.394 56.363,308.833 56.208,308.833 56.134 C 308.833 56.060,308.730 56.000,308.605 56.000 C 308.308 56.000,305.904 55.225,305.225 54.910 C 304.936 54.776,304.643 54.667,304.575 54.667 C 304.370 54.667,302.601 53.767,302.363 53.542 C 302.242 53.427,302.079 53.333,302.000 53.333 C 301.921 53.333,301.758 53.238,301.637 53.122 C 301.516 53.005,301.074 52.632,300.656 52.294 C 300.238 51.955,299.788 51.469,299.656 51.214 C 299.525 50.959,299.365 50.711,299.301 50.663 C 299.238 50.615,299.097 50.202,298.990 49.746 C 298.882 49.290,298.728 48.786,298.647 48.627 C 298.456 48.251,298.459 47.571,298.655 47.206 C 298.740 47.047,298.888 46.482,298.984 45.950 C 299.080 45.419,299.268 44.875,299.402 44.741 C 299.535 44.607,299.693 44.345,299.753 44.158 C 299.883 43.748,301.133 42.440,301.542 42.287 C 301.702 42.226,301.833 42.100,301.833 42.005 C 301.833 41.911,301.922 41.833,302.031 41.833 C 302.139 41.833,302.533 41.686,302.906 41.506 C 304.491 40.739,309.611 40.169,310.576 40.651 C 310.763 40.744,311.362 40.899,311.907 40.994 C 312.452 41.089,312.939 41.231,312.990 41.309 C 313.041 41.388,313.373 41.546,313.728 41.662 C 314.457 41.900,314.599 42.009,316.092 43.469 C 316.683 44.047,317.167 44.629,317.167 44.760 C 317.167 44.892,317.233 45.000,317.315 45.000 C 317.396 45.000,317.563 45.337,317.685 45.750 C 317.806 46.163,317.959 46.500,318.024 46.500 C 318.089 46.500,318.189 46.931,318.247 47.458 C 318.304 47.985,318.391 48.698,318.440 49.042 L 318.529 49.667 321.765 49.667 L 325.000 49.667 324.999 48.625 C 324.997 47.456,324.739 45.589,324.508 45.083 C 324.425 44.900,324.271 44.469,324.165 44.125 C 324.060 43.781,323.911 43.500,323.834 43.500 C 323.756 43.500,323.643 43.270,323.581 42.989 C 323.519 42.708,323.363 42.437,323.234 42.388 C 323.105 42.338,323.000 42.191,323.000 42.060 C 323.000 41.930,322.887 41.780,322.750 41.727 C 322.612 41.674,322.500 41.554,322.500 41.460 C 322.500 41.113,319.737 38.333,319.392 38.333 C 319.268 38.333,319.167 38.256,319.167 38.163 C 319.167 38.069,318.979 37.920,318.750 37.833 C 318.521 37.746,318.333 37.610,318.333 37.531 C 318.333 37.451,318.033 37.296,317.667 37.186 C 317.300 37.077,317.000 36.924,317.000 36.848 C 317.000 36.772,316.644 36.612,316.208 36.492 C 315.773 36.373,315.379 36.225,315.333 36.164 C 315.218 36.012,313.779 35.667,313.260 35.667 C 313.025 35.667,312.833 35.598,312.833 35.515 C 312.833 35.374,311.636 35.252,309.000 35.124 C 308.404 35.095,306.911 35.127,305.681 35.195 M71.945 35.777 C 71.884 35.839,71.833 37.076,71.833 38.528 L 71.833 41.167 79.333 41.167 L 86.833 41.167 86.833 62.083 L 86.833 83.000 90.333 83.000 L 93.833 83.000 93.833 62.083 L 93.833 41.167 101.337 41.167 L 108.842 41.167 108.796 38.458 L 108.750 35.750 90.404 35.708 C 80.313 35.684,72.007 35.716,71.945 35.777 M112.550 36.500 C 112.550 37.004,112.581 37.210,112.619 36.958 C 112.658 36.706,112.658 36.294,112.619 36.042 C 112.581 35.790,112.550 35.996,112.550 36.500 M148.111 35.778 C 148.050 35.839,148.000 46.489,148.000 59.444 L 148.000 83.000 151.500 83.000 L 155.000 83.000 155.000 73.250 C 155.000 67.887,154.936 63.500,154.859 63.500 C 154.781 63.500,154.668 60.819,154.608 57.542 C 154.547 54.265,154.460 50.421,154.415 49.000 C 154.370 47.579,154.380 46.529,154.438 46.667 C 154.496 46.804,154.674 47.217,154.835 47.583 C 154.996 47.950,155.183 48.438,155.251 48.667 C 155.319 48.896,155.430 49.158,155.499 49.250 C 155.567 49.342,155.718 49.717,155.833 50.083 C 155.949 50.450,156.099 50.825,156.167 50.917 C 156.234 51.008,156.383 51.372,156.497 51.724 C 156.610 52.077,156.807 52.565,156.934 52.808 C 157.061 53.051,157.165 53.381,157.166 53.542 C 157.166 53.702,157.241 53.833,157.331 53.833 C 157.421 53.833,157.580 54.171,157.684 54.583 C 157.788 54.996,157.927 55.333,157.993 55.333 C 158.059 55.333,158.212 55.746,158.333 56.250 C 158.454 56.754,158.607 57.167,158.672 57.167 C 158.737 57.167,158.885 57.504,159.000 57.917 C 159.115 58.329,159.266 58.667,159.334 58.667 C 159.402 58.667,159.503 58.892,159.558 59.167 C 159.613 59.442,159.801 59.985,159.976 60.375 C 160.151 60.765,160.349 61.271,160.417 61.500 C 160.485 61.729,160.597 61.992,160.665 62.083 C 160.734 62.175,160.884 62.550,161.000 62.917 C 161.116 63.283,161.266 63.658,161.333 63.750 C 161.401 63.842,161.552 64.217,161.669 64.583 C 161.785 64.950,161.983 65.398,162.107 65.579 C 162.232 65.760,162.333 66.041,162.333 66.204 C 162.333 66.367,162.401 66.500,162.483 66.500 C 162.566 66.500,162.723 66.875,162.833 67.333 C 162.943 67.792,163.092 68.167,163.165 68.167 C 163.237 68.167,163.342 68.412,163.398 68.711 C 163.455 69.011,163.640 69.517,163.811 69.836 C 163.982 70.156,164.176 70.660,164.241 70.958 C 164.306 71.256,164.419 71.500,164.492 71.500 C 164.565 71.500,164.670 71.725,164.725 72.000 C 164.780 72.275,164.971 72.821,165.150 73.214 C 165.329 73.607,165.527 74.132,165.589 74.381 C 165.652 74.630,165.760 74.833,165.831 74.833 C 165.901 74.833,166.005 75.064,166.061 75.347 C 166.117 75.629,166.270 76.098,166.399 76.388 C 167.319 78.453,167.500 78.900,167.500 79.103 C 167.500 79.230,167.568 79.333,167.650 79.333 C 167.733 79.333,167.890 79.708,168.000 80.167 C 168.110 80.625,168.251 81.000,168.314 81.000 C 168.376 81.000,168.532 81.356,168.661 81.792 C 169.016 82.996,169.026 83.000,171.576 83.000 L 173.842 83.000 173.942 82.500 C 173.997 82.225,174.106 82.000,174.185 82.000 C 174.264 82.000,174.414 81.662,174.517 81.250 C 174.621 80.837,174.763 80.500,174.832 80.500 C 174.902 80.500,175.003 80.275,175.058 80.000 C 175.113 79.725,175.305 79.179,175.484 78.786 C 175.663 78.393,175.860 77.868,175.923 77.619 C 175.985 77.370,176.096 77.167,176.168 77.167 C 176.241 77.167,176.390 76.792,176.500 76.333 C 176.610 75.875,176.753 75.500,176.818 75.500 C 176.884 75.500,177.033 75.125,177.151 74.667 C 177.268 74.208,177.426 73.833,177.502 73.833 C 177.578 73.833,177.693 73.591,177.759 73.294 C 177.824 72.998,177.972 72.604,178.089 72.419 C 178.205 72.234,178.351 71.840,178.414 71.542 C 178.476 71.244,178.582 71.000,178.650 71.000 C 178.718 71.000,178.875 70.625,179.000 70.167 C 179.125 69.708,179.281 69.333,179.347 69.333 C 179.413 69.333,179.557 68.958,179.667 68.500 C 179.777 68.042,179.925 67.667,179.996 67.667 C 180.067 67.667,180.170 67.440,180.226 67.164 C 180.281 66.888,180.515 66.262,180.746 65.773 C 180.978 65.284,181.167 64.760,181.167 64.609 C 181.167 64.457,181.234 64.333,181.317 64.333 C 181.399 64.333,181.557 63.958,181.667 63.500 C 181.777 63.042,181.934 62.667,182.017 62.667 C 182.099 62.667,182.167 62.556,182.167 62.422 C 182.167 62.287,182.354 61.767,182.583 61.266 C 182.813 60.765,183.000 60.237,183.000 60.094 C 183.000 59.951,183.069 59.833,183.153 59.833 C 183.238 59.833,183.360 59.590,183.426 59.292 C 183.491 58.994,183.684 58.489,183.855 58.170 C 184.026 57.851,184.212 57.344,184.268 57.045 C 184.324 56.745,184.430 56.500,184.502 56.500 C 184.574 56.500,184.723 56.125,184.833 55.667 C 184.943 55.208,185.087 54.833,185.153 54.833 C 185.219 54.833,185.375 54.458,185.500 54.000 C 185.625 53.542,185.781 53.167,185.848 53.167 C 185.915 53.167,186.065 52.792,186.183 52.333 C 186.300 51.875,186.451 51.500,186.518 51.500 C 186.585 51.500,186.692 51.256,186.756 50.958 C 186.820 50.660,186.973 50.229,187.097 50.000 C 187.474 49.304,188.167 47.526,188.167 47.255 C 188.167 47.115,188.236 47.000,188.321 47.000 C 188.406 47.000,188.512 46.869,188.557 46.708 C 188.602 46.548,188.597 48.892,188.547 51.917 C 188.496 55.017,188.386 57.505,188.296 57.618 C 188.198 57.742,188.126 62.668,188.110 70.368 L 188.083 82.917 191.542 82.962 L 195.001 83.007 194.959 59.378 L 194.917 35.750 190.917 35.703 C 186.202 35.648,186.217 35.645,186.072 36.418 C 186.012 36.738,185.913 37.000,185.851 37.000 C 185.790 37.000,185.636 37.356,185.509 37.792 C 185.382 38.227,185.185 38.733,185.072 38.917 C 184.959 39.100,184.815 39.494,184.753 39.792 C 184.691 40.090,184.583 40.333,184.513 40.333 C 184.444 40.333,184.288 40.746,184.167 41.250 C 184.046 41.754,183.891 42.167,183.822 42.167 C 183.754 42.167,183.601 42.542,183.484 43.000 C 183.366 43.458,183.217 43.833,183.152 43.833 C 183.087 43.833,182.943 44.208,182.833 44.667 C 182.723 45.125,182.566 45.500,182.483 45.500 C 182.401 45.500,182.331 45.631,182.328 45.792 C 182.325 45.952,182.177 46.383,182.000 46.750 C 181.823 47.117,181.675 47.477,181.672 47.551 C 181.669 47.625,181.515 48.018,181.329 48.426 C 181.144 48.833,180.947 49.392,180.892 49.667 C 180.837 49.942,180.734 50.167,180.662 50.167 C 180.591 50.167,180.443 50.542,180.333 51.000 C 180.223 51.458,180.080 51.833,180.015 51.833 C 179.950 51.833,179.800 52.208,179.683 52.667 C 179.565 53.125,179.413 53.500,179.345 53.500 C 179.276 53.500,179.121 53.913,179.000 54.417 C 178.879 54.921,178.725 55.333,178.657 55.333 C 178.589 55.333,178.443 55.708,178.333 56.167 C 178.223 56.625,178.079 57.000,178.014 57.000 C 177.948 57.000,177.791 57.375,177.667 57.833 C 177.542 58.292,177.384 58.667,177.316 58.667 C 177.249 58.667,177.143 58.897,177.081 59.178 C 177.019 59.459,176.864 59.890,176.735 60.136 C 176.607 60.382,176.456 60.827,176.399 61.125 C 176.342 61.423,176.236 61.667,176.161 61.667 C 176.087 61.667,175.973 61.910,175.908 62.208 C 175.842 62.506,175.649 63.011,175.478 63.330 C 175.307 63.649,175.121 64.156,175.065 64.455 C 175.009 64.755,174.908 65.000,174.841 65.000 C 174.775 65.000,174.621 65.412,174.500 65.917 C 174.379 66.421,174.223 66.833,174.153 66.833 C 174.084 66.833,173.973 67.077,173.908 67.375 C 173.842 67.673,173.649 68.178,173.478 68.497 C 173.307 68.816,173.121 69.322,173.065 69.622 C 173.009 69.922,172.902 70.167,172.828 70.167 C 172.754 70.167,172.641 70.410,172.577 70.708 C 172.514 71.006,172.403 71.325,172.331 71.417 C 172.260 71.508,172.102 71.921,171.982 72.333 C 171.673 73.386,171.391 73.643,171.250 72.999 C 171.189 72.725,171.083 72.500,171.013 72.500 C 170.944 72.500,170.788 72.087,170.667 71.583 C 170.546 71.079,170.391 70.667,170.323 70.667 C 170.255 70.667,170.110 70.292,170.000 69.833 C 169.890 69.375,169.747 69.000,169.682 69.000 C 169.616 69.000,169.467 68.625,169.349 68.167 C 169.232 67.708,169.077 67.333,169.005 67.333 C 168.934 67.333,168.830 67.108,168.775 66.833 C 168.720 66.558,168.523 66.000,168.338 65.592 C 168.152 65.185,168.000 64.765,168.000 64.660 C 168.000 64.554,167.897 64.269,167.771 64.026 C 167.275 63.070,166.861 62.058,166.753 61.542 C 166.691 61.244,166.583 61.000,166.513 61.000 C 166.444 61.000,166.288 60.587,166.167 60.083 C 166.046 59.579,165.890 59.167,165.820 59.167 C 165.750 59.167,165.642 58.923,165.580 58.625 C 165.518 58.327,165.365 57.922,165.240 57.724 C 165.115 57.526,164.926 57.020,164.820 56.599 C 164.714 56.178,164.569 55.833,164.499 55.833 C 164.428 55.833,164.324 55.590,164.268 55.292 C 164.211 54.994,164.054 54.538,163.918 54.278 C 163.783 54.018,163.593 53.512,163.496 53.153 C 163.400 52.794,163.248 52.500,163.160 52.500 C 163.072 52.500,163.000 52.383,163.000 52.241 C 163.000 52.098,162.858 51.667,162.686 51.283 C 162.513 50.898,162.319 50.340,162.256 50.042 C 162.192 49.744,162.079 49.500,162.005 49.500 C 161.931 49.500,161.824 49.255,161.768 48.955 C 161.712 48.656,161.516 48.131,161.333 47.789 C 161.150 47.447,161.000 47.088,161.000 46.991 C 161.000 46.894,160.858 46.500,160.686 46.116 C 160.513 45.731,160.319 45.173,160.256 44.875 C 160.192 44.577,160.079 44.333,160.005 44.333 C 159.931 44.333,159.824 44.088,159.768 43.789 C 159.712 43.489,159.526 42.983,159.355 42.664 C 159.184 42.344,158.991 41.840,158.926 41.542 C 158.860 41.244,158.746 41.000,158.672 41.000 C 158.598 41.000,158.491 40.756,158.434 40.458 C 158.378 40.160,158.227 39.715,158.098 39.470 C 157.970 39.224,157.814 38.792,157.752 38.511 C 157.691 38.230,157.585 38.000,157.517 38.000 C 157.449 38.000,157.291 37.625,157.167 37.167 C 157.042 36.708,156.887 36.333,156.823 36.333 C 156.758 36.333,156.666 36.183,156.618 36.000 C 156.530 35.663,148.437 35.452,148.111 35.778 M206.111 35.778 C 206.050 35.839,206.000 46.490,206.000 59.448 L 206.000 83.007 209.458 82.962 L 212.917 82.917 212.960 73.646 L 213.003 64.375 220.449 64.304 C 226.038 64.251,227.911 64.183,227.961 64.033 C 227.998 63.923,228.243 63.833,228.506 63.833 C 229.120 63.833,230.699 63.501,230.919 63.326 C 231.012 63.252,231.443 63.102,231.877 62.993 C 232.311 62.883,232.667 62.736,232.667 62.665 C 232.667 62.594,232.862 62.487,233.100 62.427 C 233.511 62.324,234.307 61.831,234.799 61.375 C 234.923 61.260,235.085 61.167,235.160 61.167 C 235.553 61.167,238.500 57.807,238.500 57.360 C 238.500 57.254,238.567 57.167,238.649 57.167 C 238.730 57.167,238.848 56.963,238.911 56.714 C 238.973 56.465,239.161 55.959,239.327 55.589 C 239.493 55.219,239.685 54.579,239.752 54.167 C 239.819 53.754,239.955 53.365,240.055 53.302 C 240.312 53.139,240.313 47.348,240.056 46.817 C 239.950 46.597,239.771 45.948,239.659 45.375 C 239.546 44.802,239.390 44.333,239.311 44.333 C 239.231 44.333,239.167 44.232,239.167 44.107 C 239.167 43.248,236.165 39.167,235.533 39.167 C 235.432 39.167,235.284 39.049,235.203 38.904 C 235.122 38.760,234.898 38.554,234.706 38.446 C 234.513 38.338,233.956 38.016,233.469 37.731 C 232.982 37.445,232.340 37.158,232.042 37.092 C 231.744 37.027,231.500 36.913,231.500 36.839 C 231.500 36.765,230.994 36.611,230.375 36.497 C 229.756 36.383,229.167 36.224,229.065 36.144 C 228.581 35.762,206.479 35.410,206.111 35.778 M247.369 53.753 C 247.401 65.963,247.473 71.884,247.589 71.964 C 247.684 72.030,247.852 72.535,247.963 73.087 C 248.073 73.639,248.315 74.387,248.499 74.748 C 248.683 75.108,248.833 75.500,248.833 75.619 C 248.833 75.737,248.901 75.833,248.984 75.833 C 249.066 75.833,249.212 76.058,249.308 76.333 C 249.404 76.608,249.562 76.833,249.658 76.833 C 249.754 76.833,249.834 76.927,249.836 77.042 C 249.839 77.328,250.426 78.062,251.417 79.018 C 252.544 80.106,252.745 80.275,253.196 80.512 C 253.409 80.625,253.621 80.771,253.667 80.836 C 253.803 81.032,255.694 82.000,255.940 82.000 C 256.065 82.000,256.167 82.065,256.167 82.144 C 256.167 82.223,256.617 82.383,257.167 82.500 C 257.717 82.617,258.167 82.764,258.167 82.828 C 258.167 82.934,258.698 83.067,260.833 83.496 C 261.807 83.692,268.027 83.692,269.000 83.496 C 271.351 83.024,271.758 82.927,271.833 82.822 C 271.879 82.759,272.348 82.611,272.875 82.494 C 273.402 82.376,273.833 82.232,273.833 82.174 C 273.833 82.115,274.115 81.966,274.458 81.843 C 274.802 81.720,275.121 81.574,275.167 81.518 C 275.212 81.462,275.512 81.282,275.833 81.117 C 277.044 80.494,277.333 80.311,277.333 80.169 C 277.333 80.088,277.481 79.976,277.661 79.918 C 278.244 79.733,280.500 77.310,280.500 76.869 C 280.500 76.777,280.605 76.662,280.734 76.612 C 280.863 76.563,281.019 76.292,281.081 76.011 C 281.143 75.730,281.259 75.500,281.340 75.500 C 281.421 75.500,281.580 75.181,281.694 74.792 C 281.807 74.402,281.955 74.045,282.021 73.998 C 282.174 73.890,282.649 72.036,282.832 70.833 C 282.909 70.329,282.978 62.210,282.986 52.792 L 283.000 35.667 279.667 35.667 L 276.333 35.667 276.333 52.252 C 276.333 61.676,276.269 68.963,276.184 69.127 C 276.102 69.286,275.950 69.974,275.846 70.655 C 275.742 71.336,275.594 71.974,275.517 72.072 C 275.440 72.170,275.286 72.531,275.175 72.875 C 275.065 73.219,274.910 73.500,274.832 73.500 C 274.753 73.500,274.643 73.645,274.587 73.823 C 274.476 74.172,272.719 76.000,272.494 76.000 C 272.419 76.000,272.255 76.102,272.129 76.228 C 271.837 76.521,270.313 77.333,270.057 77.333 C 269.949 77.333,269.835 77.412,269.803 77.508 C 269.771 77.604,269.202 77.763,268.539 77.861 C 267.876 77.960,267.333 78.106,267.333 78.187 C 267.333 78.267,266.246 78.333,264.917 78.333 C 263.587 78.333,262.500 78.274,262.500 78.201 C 262.500 78.127,261.995 77.981,261.378 77.875 C 260.761 77.770,260.229 77.605,260.197 77.508 C 260.165 77.412,260.051 77.333,259.944 77.333 C 259.699 77.332,258.294 76.623,257.926 76.315 C 257.083 75.608,255.833 74.339,255.833 74.189 C 255.833 74.094,255.731 73.957,255.607 73.883 C 255.482 73.810,255.289 73.469,255.177 73.125 C 255.066 72.781,254.912 72.500,254.835 72.500 C 254.759 72.500,254.611 71.956,254.505 71.292 C 254.400 70.627,254.242 69.933,254.155 69.750 C 254.058 69.547,253.980 62.841,253.956 52.583 L 253.917 35.750 250.619 35.705 L 247.322 35.660 247.369 53.753 M226.425 41.310 C 226.512 41.388,227.052 41.549,227.625 41.666 C 228.198 41.783,228.667 41.929,228.667 41.989 C 228.667 42.050,228.910 42.188,229.208 42.296 C 230.200 42.655,231.702 44.260,232.554 45.873 C 233.940 48.495,233.432 53.986,231.655 55.594 C 231.478 55.754,231.333 55.983,231.333 56.103 C 231.333 56.223,231.169 56.410,230.968 56.517 C 230.767 56.625,230.411 56.896,230.176 57.120 C 229.281 57.974,227.150 58.667,225.418 58.667 C 224.924 58.667,224.473 58.742,224.417 58.833 C 224.351 58.939,222.248 59.000,218.657 59.000 L 213.000 59.000 213.000 50.083 L 213.000 41.167 219.633 41.167 C 223.282 41.167,226.338 41.231,226.425 41.310 M112.550 57.167 C 112.550 57.671,112.581 57.877,112.619 57.625 C 112.658 57.373,112.658 56.960,112.619 56.708 C 112.581 56.456,112.550 56.663,112.550 57.167 M112.552 78.750 C 112.553 79.300,112.584 79.505,112.621 79.205 C 112.658 78.906,112.657 78.456,112.619 78.205 C 112.581 77.955,112.551 78.200,112.552 78.750 M194.575 99.500 C 194.575 102.846,194.598 104.215,194.625 102.542 C 194.652 100.869,194.652 98.131,194.625 96.458 C 194.598 94.785,194.575 96.154,194.575 99.500 M221.075 99.500 C 221.075 102.846,221.098 104.215,221.125 102.542 C 221.152 100.869,221.152 98.131,221.125 96.458 C 221.098 94.785,221.075 96.154,221.075 99.500 M237.944 93.611 C 237.790 93.765,237.804 105.462,237.958 105.558 C 238.027 105.600,238.083 102.904,238.083 99.567 C 238.083 96.230,238.077 93.500,238.069 93.500 C 238.062 93.500,238.006 93.550,237.944 93.611 M294.111 93.611 C 293.957 93.765,293.971 105.462,294.125 105.558 C 294.194 105.600,294.250 102.904,294.250 99.567 C 294.250 96.230,294.244 93.500,294.236 93.500 C 294.228 93.500,294.172 93.550,294.111 93.611 M190.552 99.583 C 190.553 100.133,190.584 100.338,190.621 100.039 C 190.658 99.739,190.657 99.289,190.619 99.039 C 190.581 98.788,190.551 99.033,190.552 99.583 M78.833 111.167 C 78.833 111.258,78.619 111.333,78.357 111.333 C 77.905 111.333,76.648 112.036,76.527 112.357 C 76.496 112.439,76.346 112.630,76.194 112.782 C 75.847 113.129,75.790 115.346,76.125 115.458 C 76.240 115.496,76.333 115.621,76.333 115.735 C 76.333 116.011,76.991 116.600,77.458 116.742 C 77.665 116.805,77.833 116.920,77.833 116.999 C 77.833 117.078,78.246 117.235,78.750 117.348 C 79.254 117.461,79.667 117.608,79.667 117.675 C 79.667 117.742,79.948 117.848,80.292 117.911 C 81.155 118.070,81.833 118.746,81.833 119.448 C 81.833 119.965,81.696 120.170,80.936 120.792 C 80.658 121.019,79.000 121.083,79.000 120.867 C 79.000 120.794,78.756 120.645,78.458 120.536 C 77.935 120.344,77.333 119.561,77.333 119.070 C 77.333 118.897,77.108 118.833,76.500 118.833 L 75.667 118.833 75.667 119.422 C 75.667 120.620,76.296 121.458,77.734 122.175 C 79.594 123.102,83.667 121.952,83.667 120.500 C 83.667 120.327,83.742 120.140,83.833 120.083 C 83.925 120.027,84.000 119.727,84.000 119.417 C 84.000 119.107,83.925 118.807,83.833 118.750 C 83.742 118.693,83.667 118.490,83.667 118.298 C 83.667 117.929,82.429 116.667,82.068 116.667 C 81.952 116.667,81.753 116.562,81.625 116.435 C 81.498 116.307,80.951 116.111,80.412 115.999 C 77.654 115.427,76.860 113.333,79.201 112.807 C 80.493 112.517,81.594 113.104,81.817 114.202 C 81.924 114.728,81.963 114.752,82.798 114.800 L 83.667 114.851 83.667 114.159 C 83.667 112.818,82.665 111.587,81.409 111.383 C 81.088 111.331,80.785 111.224,80.736 111.144 C 80.611 110.942,78.833 110.963,78.833 111.167 M107.764 111.145 C 107.714 111.224,107.375 111.337,107.010 111.396 C 106.206 111.524,105.094 112.510,104.807 113.349 C 104.700 113.661,104.531 113.970,104.431 114.036 C 104.177 114.203,104.183 119.303,104.437 119.464 C 104.540 119.530,104.674 119.812,104.735 120.091 C 104.852 120.633,106.060 122.000,106.422 122.000 C 106.541 122.000,106.668 122.089,106.705 122.197 C 106.825 122.557,109.677 122.589,110.434 122.239 C 111.155 121.906,112.162 121.023,112.165 120.722 C 112.166 120.615,112.253 120.499,112.359 120.464 C 112.464 120.429,112.586 119.972,112.629 119.450 L 112.708 118.500 111.785 118.500 L 110.863 118.500 110.745 119.193 C 110.623 119.916,110.035 120.667,109.591 120.667 C 109.449 120.667,109.333 120.742,109.333 120.833 C 109.333 120.925,109.033 121.000,108.667 121.000 C 108.300 121.000,108.000 120.931,108.000 120.847 C 108.000 120.762,107.783 120.645,107.517 120.587 C 107.251 120.529,106.991 120.354,106.938 120.199 C 106.886 120.044,106.686 119.654,106.495 119.333 C 106.081 118.637,106.050 114.344,106.458 114.208 C 106.573 114.170,106.667 114.051,106.667 113.944 C 106.667 113.837,106.873 113.555,107.125 113.318 C 108.341 112.176,110.254 112.744,110.731 114.390 C 110.931 115.083,110.932 115.083,111.757 115.083 L 112.583 115.083 112.565 114.143 C 112.555 113.609,112.447 113.083,112.315 112.926 C 111.337 111.756,110.698 111.333,109.909 111.333 C 109.684 111.333,109.500 111.258,109.500 111.167 C 109.500 110.963,107.889 110.942,107.764 111.145 M130.930 111.145 C 130.881 111.224,130.558 111.335,130.212 111.390 C 129.632 111.483,129.026 111.929,128.334 112.771 C 128.045 113.121,127.979 115.270,128.250 115.464 C 128.342 115.530,128.517 115.777,128.638 116.013 C 128.888 116.498,130.349 117.303,131.244 117.448 C 131.568 117.501,131.833 117.600,131.833 117.670 C 131.833 117.739,132.115 117.848,132.458 117.911 C 133.322 118.070,134.000 118.746,134.000 119.448 C 134.000 119.965,133.863 120.170,133.102 120.792 C 132.810 121.031,131.167 121.078,131.167 120.847 C 131.167 120.762,130.946 120.645,130.677 120.586 C 130.188 120.478,129.500 119.594,129.500 119.074 C 129.500 118.896,129.282 118.833,128.667 118.833 L 127.833 118.833 127.833 119.392 C 127.833 121.361,129.284 122.417,131.988 122.417 C 137.187 122.417,137.598 117.266,132.500 116.005 C 130.367 115.477,129.328 114.150,130.357 113.269 C 131.599 112.205,133.708 112.763,133.944 114.218 L 134.044 114.833 134.959 114.833 L 135.875 114.833 135.796 113.883 C 135.753 113.361,135.631 112.905,135.525 112.870 C 135.420 112.834,135.333 112.708,135.333 112.589 C 135.333 112.226,134.183 111.470,133.488 111.377 C 133.128 111.329,132.833 111.224,132.833 111.145 C 132.833 110.956,131.047 110.956,130.930 111.145 M242.833 111.145 C 242.833 111.225,242.560 111.334,242.227 111.388 C 241.510 111.504,240.385 112.240,240.244 112.686 C 240.189 112.859,240.084 113.000,240.010 113.000 C 239.937 113.000,239.786 113.356,239.676 113.792 C 239.565 114.227,239.405 114.714,239.321 114.873 C 239.112 115.265,239.123 118.620,239.333 118.750 C 239.425 118.807,239.500 119.033,239.500 119.252 C 239.500 120.205,240.527 121.509,241.798 122.169 C 242.570 122.570,245.389 122.608,245.637 122.221 C 245.699 122.124,245.900 121.995,246.083 121.935 C 246.442 121.816,247.333 121.085,247.333 120.909 C 247.333 120.850,247.502 120.565,247.708 120.276 C 248.154 119.650,248.367 115.160,248.008 113.960 C 247.717 112.989,246.207 111.537,245.345 111.399 C 244.968 111.339,244.619 111.224,244.570 111.145 C 244.453 110.956,242.833 110.956,242.833 111.145 M278.667 111.156 C 278.529 111.231,278.117 111.386,277.750 111.501 C 277.000 111.734,275.919 112.803,275.750 113.477 C 275.689 113.717,275.552 113.968,275.445 114.034 C 275.182 114.197,275.170 119.294,275.433 119.464 C 275.533 119.530,275.669 119.808,275.735 120.083 C 275.862 120.611,277.095 122.000,277.437 122.000 C 277.548 122.000,277.670 122.094,277.708 122.208 C 277.758 122.359,278.304 122.417,279.667 122.417 C 281.030 122.417,281.575 122.359,281.625 122.208 C 281.663 122.094,281.782 121.999,281.889 121.997 C 282.582 121.987,283.667 120.254,283.667 119.156 L 283.667 118.500 282.765 118.500 L 281.863 118.500 281.745 119.193 C 281.623 119.916,281.035 120.667,280.591 120.667 C 280.449 120.667,280.333 120.742,280.333 120.833 C 280.333 120.925,280.033 121.000,279.667 121.000 C 279.300 121.000,279.000 120.933,279.000 120.851 C 279.000 120.770,278.823 120.658,278.607 120.604 C 277.610 120.354,277.250 119.314,277.250 116.680 C 277.250 114.906,277.305 114.259,277.458 114.208 C 277.573 114.170,277.667 114.051,277.667 113.944 C 277.667 113.837,277.873 113.555,278.125 113.318 C 279.352 112.166,281.250 112.730,281.731 114.390 C 282.001 115.326,283.537 115.494,283.639 114.599 C 283.816 113.042,282.388 111.333,280.909 111.333 C 280.684 111.333,280.500 111.258,280.500 111.167 C 280.500 110.969,279.026 110.960,278.667 111.156 M290.500 111.167 C 290.500 111.258,290.316 111.333,290.091 111.333 C 289.314 111.333,288.619 111.788,287.729 112.879 C 287.625 113.005,287.485 113.291,287.417 113.513 C 287.348 113.735,287.208 114.022,287.105 114.151 C 286.751 114.591,286.861 118.969,287.248 119.839 C 287.598 120.625,288.782 121.998,289.111 121.999 C 289.218 122.000,289.337 122.094,289.375 122.208 C 289.467 122.484,293.122 122.505,293.298 122.231 C 293.363 122.129,293.583 121.993,293.787 121.929 C 294.199 121.801,295.333 120.557,295.333 120.234 C 295.333 120.121,295.427 119.997,295.542 119.959 C 295.968 119.817,295.930 114.455,295.497 113.620 C 294.814 112.306,293.570 111.333,292.572 111.333 C 292.349 111.333,292.167 111.258,292.167 111.167 C 292.167 111.075,291.792 111.000,291.333 111.000 C 290.875 111.000,290.500 111.075,290.500 111.167 M329.167 111.167 C 329.167 111.258,328.952 111.333,328.690 111.333 C 328.238 111.333,326.981 112.036,326.860 112.357 C 326.829 112.439,326.679 112.630,326.527 112.782 C 326.181 113.129,326.124 115.346,326.458 115.458 C 326.573 115.496,326.667 115.621,326.667 115.735 C 326.667 116.011,327.325 116.600,327.792 116.742 C 327.998 116.805,328.167 116.920,328.167 116.999 C 328.167 117.078,328.579 117.235,329.083 117.348 C 329.587 117.461,330.000 117.610,330.000 117.679 C 330.000 117.748,330.304 117.855,330.675 117.918 C 331.535 118.063,332.167 118.715,332.167 119.457 C 332.167 119.964,332.026 120.173,331.269 120.792 C 330.991 121.019,329.333 121.083,329.333 120.867 C 329.333 120.794,329.079 120.642,328.769 120.529 C 328.240 120.338,328.096 120.135,327.771 119.125 C 327.698 118.898,327.490 118.833,326.839 118.833 L 326.000 118.833 326.000 119.422 C 326.000 120.620,326.630 121.458,328.068 122.175 C 329.927 123.102,334.000 121.952,334.000 120.500 C 334.000 120.327,334.075 120.140,334.167 120.083 C 334.258 120.027,334.333 119.727,334.333 119.417 C 334.333 119.107,334.258 118.807,334.167 118.750 C 334.075 118.693,334.000 118.493,334.000 118.304 C 334.000 117.920,332.797 116.667,332.428 116.667 C 332.298 116.667,332.086 116.562,331.959 116.435 C 331.831 116.307,331.285 116.111,330.745 115.999 C 327.991 115.427,327.208 113.451,329.491 112.836 C 330.791 112.486,331.853 113.036,332.182 114.230 C 332.345 114.820,332.368 114.833,333.175 114.833 L 334.000 114.833 334.000 114.161 C 334.000 112.797,333.022 111.591,331.747 111.384 C 331.428 111.332,331.167 111.225,331.167 111.145 C 331.167 111.065,330.717 111.000,330.167 111.000 C 329.611 111.000,329.167 111.074,329.167 111.167 M63.527 115.708 C 63.578 119.699,63.612 120.127,63.907 120.583 C 64.339 121.253,65.134 122.000,65.413 122.000 C 65.537 122.000,65.670 122.094,65.708 122.208 C 65.954 122.948,70.106 122.346,71.009 121.440 C 71.958 120.489,71.913 120.748,71.968 115.879 L 72.020 111.333 71.104 111.333 L 70.188 111.333 70.136 115.489 L 70.083 119.645 69.594 120.156 C 69.325 120.437,69.006 120.667,68.885 120.667 C 68.765 120.667,68.667 120.742,68.667 120.833 C 68.667 121.106,67.069 121.034,66.833 120.750 C 66.719 120.612,66.539 120.500,66.433 120.500 C 65.687 120.500,65.586 119.943,65.534 115.542 L 65.484 111.333 64.478 111.333 L 63.471 111.333 63.527 115.708 M87.833 116.833 L 87.833 122.333 91.583 122.333 L 95.333 122.333 95.333 121.500 L 95.333 120.667 92.583 120.667 L 89.833 120.667 89.833 119.000 L 89.833 117.333 92.250 117.333 L 94.667 117.333 94.667 116.583 L 94.667 115.833 92.250 115.833 L 89.833 115.833 89.833 114.333 L 89.833 112.833 92.583 112.833 L 95.333 112.833 95.333 112.083 L 95.333 111.333 91.583 111.333 L 87.833 111.333 87.833 116.833 M119.110 111.826 C 119.054 112.105,118.855 112.671,118.667 113.083 C 118.479 113.496,118.280 114.058,118.225 114.333 C 118.170 114.608,118.065 114.833,117.992 114.833 C 117.919 114.833,117.808 115.077,117.744 115.375 C 117.681 115.673,117.487 116.231,117.314 116.616 C 117.142 117.000,117.000 117.432,117.000 117.574 C 117.000 117.717,116.935 117.833,116.855 117.833 C 116.775 117.833,116.612 118.190,116.493 118.625 C 116.373 119.060,116.185 119.567,116.074 119.750 C 115.963 119.933,115.821 120.308,115.757 120.582 C 115.693 120.856,115.581 121.118,115.508 121.165 C 115.435 121.212,115.322 121.494,115.258 121.792 L 115.140 122.333 116.153 122.333 C 116.850 122.333,117.168 122.268,117.172 122.125 C 117.175 122.010,117.323 121.617,117.500 121.250 C 117.677 120.883,117.827 120.471,117.833 120.333 C 117.864 119.621,118.208 119.500,120.195 119.500 L 122.103 119.500 122.392 120.157 C 122.552 120.518,122.775 121.137,122.889 121.532 L 123.097 122.250 124.069 122.301 L 125.040 122.351 124.922 121.717 C 124.857 121.369,124.668 120.783,124.504 120.417 C 124.339 120.050,124.152 119.506,124.089 119.208 C 124.025 118.910,123.914 118.667,123.841 118.667 C 123.768 118.667,123.662 118.436,123.606 118.153 C 123.508 117.665,123.355 117.269,122.676 115.750 C 122.512 115.383,122.325 114.839,122.259 114.542 C 122.194 114.244,122.083 114.000,122.013 114.000 C 121.943 114.000,121.794 113.587,121.681 113.083 C 121.568 112.579,121.412 112.167,121.333 112.167 C 121.254 112.167,121.166 111.998,121.137 111.792 C 121.040 111.112,119.247 111.142,119.110 111.826 M139.873 116.792 L 139.917 122.250 143.718 122.295 L 147.519 122.340 147.468 121.545 L 147.417 120.750 144.625 120.704 L 141.833 120.659 141.833 118.996 L 141.833 117.333 144.333 117.333 L 146.833 117.333 146.833 116.583 L 146.833 115.833 144.333 115.833 L 141.833 115.833 141.833 114.333 L 141.833 112.833 144.667 112.833 L 147.500 112.833 147.500 112.083 L 147.500 111.333 143.664 111.333 L 139.829 111.333 139.873 116.792 M157.000 116.833 L 157.000 122.333 159.573 122.333 C 160.989 122.333,162.190 122.264,162.242 122.179 C 162.294 122.095,162.571 121.974,162.858 121.911 C 163.499 121.771,164.781 120.521,164.937 119.885 C 165.000 119.627,165.134 119.363,165.234 119.298 C 165.892 118.870,165.190 113.000,164.482 113.000 C 164.412 113.000,164.309 112.854,164.253 112.675 C 164.196 112.497,164.004 112.304,163.826 112.248 C 163.648 112.191,163.383 112.026,163.238 111.881 C 162.844 111.487,161.835 111.349,159.292 111.341 L 157.000 111.333 157.000 116.833 M169.167 116.833 L 169.167 122.333 172.917 122.333 L 176.667 122.333 176.667 121.500 L 176.667 120.667 173.917 120.667 L 171.167 120.667 171.167 119.000 L 171.167 117.333 173.583 117.333 L 176.000 117.333 176.000 116.583 L 176.000 115.833 173.583 115.833 L 171.167 115.833 171.167 114.333 L 171.167 112.833 173.917 112.833 L 176.667 112.833 176.667 112.083 L 176.667 111.333 172.917 111.333 L 169.167 111.333 169.167 116.833 M180.167 116.830 L 180.167 122.333 181.167 122.333 L 182.167 122.333 182.167 119.917 L 182.167 117.500 184.583 117.500 L 187.000 117.500 187.000 116.750 L 187.000 116.000 184.583 116.000 L 182.167 116.000 182.167 114.421 L 182.167 112.841 184.958 112.796 L 187.750 112.750 187.750 112.083 L 187.750 111.417 183.958 111.372 L 180.167 111.327 180.167 116.830 M191.333 116.833 L 191.333 122.333 192.250 122.333 L 193.167 122.333 193.167 116.833 L 193.167 111.333 192.250 111.333 L 191.333 111.333 191.333 116.833 M197.667 116.833 L 197.667 122.333 198.667 122.333 L 199.667 122.333 199.680 118.542 C 199.687 116.456,199.736 114.862,199.788 115.000 C 199.840 115.138,199.933 115.287,199.994 115.333 C 200.055 115.379,200.348 115.829,200.645 116.333 C 200.942 116.837,201.407 117.587,201.677 118.000 C 201.948 118.412,202.215 118.881,202.271 119.042 C 202.326 119.202,202.437 119.333,202.517 119.333 C 202.597 119.333,202.778 119.577,202.919 119.875 C 203.283 120.643,203.613 121.195,203.780 121.314 C 203.859 121.371,204.014 121.623,204.125 121.875 C 204.309 122.295,204.402 122.333,205.246 122.333 L 206.167 122.333 206.167 116.833 L 206.167 111.333 205.253 111.333 L 204.340 111.333 204.295 115.042 C 204.265 117.536,204.198 118.641,204.092 118.417 C 204.005 118.233,203.872 118.008,203.798 117.917 C 203.457 117.499,202.833 116.470,202.833 116.326 C 202.833 116.238,202.767 116.167,202.687 116.167 C 202.606 116.167,202.447 115.942,202.333 115.667 C 202.219 115.392,202.065 115.167,201.991 115.167 C 201.916 115.167,201.760 114.904,201.644 114.583 C 201.528 114.263,201.382 114.000,201.320 114.000 C 201.258 114.000,201.114 113.775,201.000 113.500 C 200.886 113.225,200.734 113.000,200.663 113.000 C 200.591 113.000,200.454 112.775,200.358 112.500 C 200.262 112.225,200.114 112.000,200.028 112.000 C 199.942 112.000,199.833 111.850,199.785 111.667 C 199.710 111.379,199.558 111.333,198.682 111.333 L 197.667 111.333 197.667 116.833 M210.667 116.833 L 210.667 122.333 214.509 122.333 L 218.352 122.333 218.301 121.542 L 218.250 120.750 215.458 120.704 L 212.667 120.659 212.667 118.996 L 212.667 117.333 215.167 117.333 L 217.667 117.333 217.667 116.583 L 217.667 115.833 215.167 115.833 L 212.667 115.833 212.667 114.333 L 212.667 112.833 215.500 112.833 L 218.333 112.833 218.333 112.083 L 218.333 111.333 214.500 111.333 L 210.667 111.333 210.667 116.833 M221.667 116.817 L 221.667 122.333 224.217 122.333 C 225.619 122.333,226.838 122.267,226.925 122.187 C 227.012 122.106,227.351 121.955,227.679 121.850 C 230.866 120.834,231.109 113.899,228.027 111.917 C 227.255 111.420,227.232 111.416,224.458 111.358 L 221.667 111.300 221.667 116.817 M252.029 115.625 C 252.087 120.234,252.116 120.395,253.041 121.383 C 254.562 123.006,258.600 122.792,259.959 121.015 L 260.417 120.417 260.468 115.875 L 260.520 111.333 259.676 111.333 L 258.833 111.333 258.833 115.250 C 258.833 117.750,258.773 119.167,258.667 119.167 C 258.575 119.167,258.500 119.306,258.500 119.477 C 258.500 119.837,257.729 120.667,257.394 120.667 C 257.269 120.667,257.167 120.742,257.167 120.833 C 257.167 121.106,255.569 121.034,255.333 120.750 C 255.219 120.612,255.030 120.500,254.913 120.500 C 254.177 120.500,254.000 119.497,254.000 115.324 L 254.000 111.333 252.988 111.333 L 251.975 111.333 252.029 115.625 M263.667 112.083 L 263.667 112.833 265.331 112.833 L 266.995 112.833 267.039 117.542 L 267.083 122.250 267.958 122.300 L 268.833 122.351 268.833 117.592 L 268.833 112.833 270.667 112.833 L 272.500 112.833 272.500 112.083 L 272.500 111.333 268.083 111.333 L 263.667 111.333 263.667 112.083 M299.873 116.792 L 299.917 122.250 300.889 122.300 L 301.861 122.351 301.806 118.613 C 301.752 114.978,301.758 114.891,302.036 115.479 C 302.193 115.811,302.325 116.215,302.328 116.375 C 302.331 116.535,302.399 116.667,302.480 116.667 C 302.561 116.667,302.712 117.004,302.816 117.417 C 302.920 117.829,303.067 118.167,303.142 118.167 C 303.218 118.167,303.379 118.579,303.500 119.083 C 303.621 119.587,303.777 120.000,303.847 120.000 C 303.916 120.000,304.026 120.241,304.091 120.535 C 304.453 122.184,305.958 123.140,306.265 121.917 C 306.322 121.688,306.429 121.500,306.503 121.500 C 306.576 121.500,306.732 121.125,306.849 120.667 C 306.967 120.208,307.116 119.833,307.180 119.833 C 307.245 119.833,307.345 119.627,307.404 119.375 C 307.463 119.123,307.613 118.692,307.738 118.417 C 307.862 118.142,308.122 117.572,308.315 117.150 C 308.507 116.729,308.712 116.147,308.770 115.858 C 309.029 114.564,309.167 115.598,309.167 118.833 L 309.167 122.333 310.000 122.333 L 310.833 122.333 310.833 116.833 L 310.833 111.333 309.781 111.333 L 308.729 111.333 308.356 112.187 C 308.151 112.657,307.940 113.257,307.888 113.521 C 307.835 113.784,307.726 114.000,307.646 114.000 C 307.566 114.000,307.500 114.117,307.500 114.261 C 307.500 114.404,307.313 114.931,307.083 115.432 C 306.854 115.933,306.664 116.435,306.661 116.547 C 306.658 116.658,306.546 116.896,306.411 117.074 C 306.277 117.251,306.167 117.495,306.167 117.614 C 306.167 117.937,305.608 119.167,305.461 119.167 C 305.391 119.167,305.333 119.054,305.333 118.917 C 305.333 118.779,305.267 118.667,305.185 118.667 C 305.104 118.667,304.991 118.422,304.935 118.122 C 304.879 117.822,304.693 117.316,304.522 116.997 C 304.351 116.678,304.158 116.173,304.092 115.875 C 304.027 115.577,303.919 115.333,303.852 115.333 C 303.785 115.333,303.634 114.959,303.516 114.500 C 303.399 114.042,303.235 113.625,303.151 113.574 C 303.068 113.522,303.000 113.373,303.000 113.242 C 303.000 113.111,302.836 112.627,302.635 112.168 L 302.271 111.333 301.050 111.333 L 299.829 111.333 299.873 116.792 M315.373 116.792 L 315.417 122.250 319.218 122.295 L 323.019 122.340 322.968 121.545 L 322.917 120.750 320.125 120.704 L 317.333 120.659 317.333 118.996 L 317.333 117.333 319.833 117.333 L 322.333 117.333 322.333 116.583 L 322.333 115.833 319.833 115.833 L 317.333 115.833 317.333 114.333 L 317.333 112.833 320.167 112.833 L 323.000 112.833 323.000 112.083 L 323.000 111.333 319.164 111.333 L 315.329 111.333 315.373 116.792 M161.959 113.206 C 162.369 113.410,162.766 113.740,162.842 113.938 C 162.917 114.136,163.077 114.331,163.198 114.371 C 163.499 114.472,163.512 118.810,163.212 119.170 C 161.982 120.652,162.118 120.578,160.496 120.642 L 159.000 120.700 159.000 116.767 L 159.000 112.833 160.107 112.833 C 160.919 112.833,161.412 112.933,161.959 113.206 M226.639 113.113 C 226.700 113.207,226.919 113.372,227.125 113.481 C 227.331 113.590,227.500 113.761,227.500 113.862 C 227.500 113.964,227.629 114.141,227.787 114.256 C 228.019 114.426,228.086 114.804,228.139 116.231 C 228.224 118.535,228.121 119.004,227.340 119.868 L 226.692 120.583 225.179 120.642 L 223.667 120.700 223.667 116.746 L 223.667 112.792 225.097 112.867 C 225.884 112.908,226.578 113.019,226.639 113.113 M245.428 113.568 C 247.018 115.204,246.584 120.199,244.817 120.587 C 244.551 120.645,244.333 120.762,244.333 120.847 C 244.333 120.931,244.071 121.000,243.750 121.000 C 243.429 121.000,243.167 120.925,243.167 120.833 C 243.167 120.742,243.031 120.667,242.865 120.667 C 242.497 120.667,241.811 119.952,241.440 119.183 C 241.140 118.560,241.032 114.667,241.315 114.667 C 241.397 114.667,241.515 114.464,241.577 114.217 C 241.965 112.669,244.190 112.294,245.428 113.568 M292.999 113.480 C 293.373 113.835,293.751 114.379,293.839 114.687 C 294.188 115.904,293.946 119.667,293.519 119.667 C 293.446 119.667,293.305 119.847,293.204 120.068 C 293.094 120.310,292.820 120.513,292.513 120.581 C 292.233 120.642,291.961 120.762,291.909 120.846 C 291.780 121.054,290.833 121.043,290.833 120.833 C 290.833 120.742,290.697 120.667,290.531 120.667 C 290.163 120.667,289.478 119.952,289.107 119.183 C 288.807 118.560,288.699 114.667,288.982 114.667 C 289.064 114.667,289.181 114.464,289.243 114.217 C 289.616 112.733,291.769 112.310,292.999 113.480 M120.665 115.333 C 120.737 115.333,120.848 115.615,120.912 115.958 C 121.008 116.477,121.291 117.241,121.621 117.875 C 121.657 117.944,121.038 118.000,120.247 118.000 L 118.807 118.000 118.920 117.458 C 118.982 117.160,119.128 116.766,119.245 116.581 C 119.361 116.396,119.512 115.984,119.581 115.664 C 119.649 115.345,119.828 114.872,119.978 114.614 L 120.250 114.145 120.392 114.739 C 120.469 115.066,120.592 115.333,120.665 115.333 " stroke="none" fill="#000000" fill-rule="evenodd"></path><path id="path1" d="M131.042 40.948 C 131.202 40.990,131.465 40.990,131.625 40.948 C 131.785 40.906,131.654 40.872,131.333 40.872 C 131.012 40.872,130.881 40.906,131.042 40.948 M134.955 40.954 C 135.250 40.990,135.775 40.991,136.121 40.955 C 136.467 40.919,136.225 40.889,135.583 40.888 C 134.942 40.887,134.659 40.917,134.955 40.954 M135.000 61.500 L 134.250 61.617 135.208 61.642 C 135.753 61.656,136.167 61.595,136.167 61.500 C 136.167 61.322,136.146 61.322,135.000 61.500 M138.417 61.500 C 138.473 61.592,138.796 61.666,139.135 61.664 C 139.593 61.662,139.686 61.620,139.500 61.500 C 139.167 61.285,138.284 61.285,138.417 61.500 M129.542 61.615 C 129.702 61.657,129.965 61.657,130.125 61.615 C 130.285 61.573,130.154 61.539,129.833 61.539 C 129.512 61.539,129.381 61.573,129.542 61.615 M172.883 94.500 C 172.883 95.004,172.915 95.210,172.953 94.958 C 172.991 94.706,172.991 94.294,172.953 94.042 C 172.915 93.790,172.883 93.996,172.883 94.500 M238.075 99.583 C 238.075 102.883,238.097 104.257,238.125 102.636 C 238.152 101.015,238.152 98.315,238.125 96.636 C 238.098 94.957,238.075 96.283,238.075 99.583 M294.242 99.583 C 294.242 102.883,294.264 104.257,294.291 102.636 C 294.319 101.015,294.319 98.315,294.291 96.636 C 294.264 94.957,294.242 96.283,294.242 99.583 M269.388 99.583 C 269.389 100.225,269.419 100.467,269.455 100.121 C 269.491 99.775,269.490 99.250,269.454 98.955 C 269.417 98.659,269.387 98.942,269.388 99.583 " stroke="none" fill="#404040" fill-rule="evenodd"></path><path id="path2" d="M112.704 38.291 L 112.750 40.917 125.558 40.917 C 132.602 40.917,138.397 40.865,138.436 40.803 C 138.474 40.740,138.763 40.730,139.077 40.781 C 139.392 40.832,139.842 40.826,140.077 40.766 L 140.506 40.659 140.461 38.204 L 140.417 35.750 126.537 35.707 L 112.658 35.665 112.704 38.291 M112.704 58.958 L 112.750 61.583 123.333 61.605 C 129.154 61.617,134.402 61.565,134.995 61.488 C 135.742 61.391,136.108 61.405,136.187 61.532 C 136.264 61.658,136.613 61.675,137.275 61.587 C 137.811 61.516,138.667 61.443,139.177 61.425 C 140.541 61.376,140.499 61.465,140.467 58.742 L 140.439 56.333 126.548 56.333 L 112.658 56.333 112.704 58.958 M112.704 80.457 L 112.750 83.083 126.250 83.102 C 133.675 83.113,139.921 83.058,140.130 82.980 C 140.504 82.840,140.509 82.806,140.460 80.377 L 140.411 77.917 126.534 77.874 L 112.658 77.831 112.704 80.457 M112.610 93.347 C 111.983 93.401,111.420 93.523,111.360 93.617 C 111.299 93.711,111.100 93.838,110.917 93.898 C 110.394 94.070,109.618 94.855,109.078 95.757 L 108.583 96.583 108.583 99.500 C 108.583 102.174,108.613 102.473,108.945 103.092 C 109.306 103.767,110.586 105.167,110.841 105.167 C 110.915 105.167,111.107 105.297,111.266 105.457 C 112.425 106.615,118.000 105.094,118.000 103.620 C 118.000 103.541,118.112 103.364,118.250 103.226 C 118.388 103.089,118.500 102.757,118.500 102.488 C 118.500 102.220,118.567 102.000,118.650 102.000 C 118.937 102.000,118.868 97.953,118.562 96.853 C 118.406 96.292,118.216 95.833,118.139 95.833 C 118.063 95.833,118.000 95.730,118.000 95.603 C 118.000 95.280,116.778 94.057,116.308 93.911 C 116.093 93.843,115.875 93.725,115.825 93.646 C 115.674 93.413,113.830 93.241,112.610 93.347 M154.261 93.358 C 153.717 93.434,153.230 93.562,153.178 93.642 C 153.126 93.723,152.933 93.836,152.750 93.894 C 151.944 94.149,150.733 95.614,150.580 96.519 C 150.520 96.874,150.403 97.207,150.319 97.259 C 150.011 97.449,150.145 101.140,150.503 102.345 C 150.873 103.587,151.897 104.846,153.002 105.418 C 154.095 105.983,157.217 105.951,158.000 105.366 C 158.388 105.076,159.592 103.891,159.953 103.444 C 160.576 102.672,160.742 96.759,160.159 96.059 C 160.018 95.889,159.804 95.552,159.683 95.310 C 159.562 95.068,159.284 94.774,159.065 94.657 C 158.846 94.540,158.667 94.377,158.667 94.297 C 158.667 94.216,158.442 94.071,158.167 93.975 C 157.892 93.879,157.667 93.738,157.667 93.661 C 157.667 93.537,157.311 93.467,155.667 93.270 C 155.438 93.243,154.805 93.282,154.261 93.358 M270.711 93.371 C 269.214 93.586,267.703 94.691,267.302 95.863 C 267.197 96.167,267.031 96.470,266.931 96.536 C 266.623 96.738,266.688 102.473,267.000 102.670 C 267.137 102.757,267.192 102.829,267.121 102.831 C 266.886 102.835,267.536 103.897,268.148 104.507 C 269.328 105.682,272.116 106.259,273.614 105.639 C 273.872 105.532,274.121 105.436,274.167 105.425 C 275.056 105.213,276.451 103.614,276.609 102.627 C 276.664 102.282,276.775 102.000,276.855 102.000 C 277.040 102.000,277.047 97.287,276.861 97.075 C 276.785 96.988,276.634 96.605,276.526 96.225 C 276.303 95.439,274.831 93.833,274.334 93.833 C 274.165 93.833,274.000 93.749,273.965 93.645 C 273.880 93.391,271.791 93.215,270.711 93.371 M94.500 99.500 L 94.500 105.667 95.917 105.667 L 97.333 105.667 97.333 99.500 L 97.333 93.333 95.917 93.333 L 94.500 93.333 94.500 99.500 M101.743 93.543 C 101.698 93.658,101.682 96.414,101.706 99.668 L 101.750 105.583 103.208 105.631 L 104.667 105.680 104.667 99.770 C 104.667 96.520,104.621 93.742,104.566 93.597 C 104.434 93.256,101.872 93.206,101.743 93.543 M121.667 94.417 L 121.667 95.500 123.333 95.500 L 125.000 95.500 125.000 100.583 L 125.000 105.667 126.333 105.667 L 127.667 105.667 127.667 100.583 L 127.667 95.500 129.417 95.500 L 131.167 95.500 131.167 94.417 L 131.167 93.333 126.417 93.333 L 121.667 93.333 121.667 94.417 M137.563 93.625 C 137.512 93.785,137.408 94.067,137.332 94.250 C 137.256 94.433,136.837 95.671,136.402 97.000 C 135.966 98.329,135.516 99.642,135.401 99.917 C 135.286 100.192,135.139 100.642,135.073 100.917 C 135.008 101.192,134.899 101.492,134.832 101.583 C 134.765 101.675,134.611 102.144,134.490 102.625 C 134.369 103.106,134.221 103.500,134.162 103.500 C 134.102 103.500,133.960 103.916,133.846 104.424 C 133.733 104.932,133.534 105.550,133.404 105.799 C 132.927 106.713,133.040 106.833,134.383 106.833 C 135.640 106.833,136.000 106.677,136.000 106.133 C 136.000 105.968,136.066 105.833,136.146 105.833 C 136.226 105.833,136.392 105.383,136.514 104.833 C 136.636 104.283,136.790 103.833,136.856 103.833 C 136.922 103.833,137.065 103.402,137.174 102.875 C 137.283 102.348,137.423 101.879,137.486 101.833 C 137.619 101.735,138.075 100.307,138.030 100.125 C 138.014 100.056,138.075 100.000,138.167 100.000 C 138.258 100.000,138.333 99.845,138.333 99.656 C 138.333 99.467,138.475 98.960,138.649 98.531 C 138.968 97.740,140.333 93.605,140.333 93.429 C 140.333 93.152,137.653 93.342,137.563 93.625 M143.500 99.500 L 143.500 105.667 144.917 105.667 L 146.333 105.667 146.333 99.500 L 146.333 93.333 144.917 93.333 L 143.500 93.333 143.500 99.500 M163.500 94.417 L 163.500 95.500 165.167 95.500 L 166.833 95.500 166.833 100.583 L 166.833 105.667 168.167 105.667 L 169.500 105.667 169.500 100.583 L 169.500 95.500 171.167 95.500 L 172.833 95.500 172.833 94.417 L 172.833 93.333 168.167 93.333 L 163.500 93.333 163.500 94.417 M182.748 93.708 C 182.698 93.915,182.678 96.671,182.703 99.833 L 182.750 105.583 184.125 105.632 L 185.500 105.680 185.500 103.173 L 185.500 100.667 188.008 100.667 L 190.516 100.667 190.466 99.625 L 190.417 98.583 187.958 98.537 L 185.500 98.491 185.500 96.996 L 185.500 95.500 188.417 95.500 L 191.333 95.500 191.333 94.417 L 191.333 93.333 187.087 93.333 L 182.840 93.333 182.748 93.708 M194.667 99.482 L 194.667 105.667 196.000 105.667 L 197.333 105.667 197.333 103.333 L 197.333 101.000 198.633 101.000 C 200.899 101.000,201.026 101.148,201.235 104.024 C 201.348 105.577,201.447 105.667,203.061 105.667 C 204.612 105.667,204.770 105.599,204.430 105.080 C 204.299 104.880,204.145 104.162,204.089 103.483 C 203.921 101.481,203.213 99.833,202.521 99.833 C 202.395 99.833,202.558 99.589,202.885 99.290 C 204.560 97.756,204.021 94.670,201.955 93.963 C 201.659 93.862,201.363 93.697,201.298 93.598 C 201.222 93.482,200.015 93.396,197.923 93.357 L 194.667 93.298 194.667 99.482 M210.836 94.620 C 210.608 95.333,210.373 95.954,210.314 96.000 C 210.255 96.046,210.111 96.515,209.994 97.042 C 209.876 97.569,209.729 98.000,209.667 98.000 C 209.604 98.000,209.454 98.412,209.333 98.917 C 209.212 99.421,209.062 99.833,209.000 99.833 C 208.937 99.833,208.791 100.265,208.675 100.792 C 208.558 101.319,208.402 101.826,208.327 101.919 C 208.252 102.012,208.098 102.462,207.985 102.919 C 207.871 103.376,207.684 103.900,207.568 104.083 C 207.453 104.267,207.307 104.698,207.244 105.042 L 207.130 105.667 208.565 105.667 C 209.820 105.667,210.000 105.630,210.001 105.375 C 210.002 105.215,210.107 104.882,210.235 104.636 C 210.364 104.390,210.519 103.959,210.581 103.678 L 210.693 103.167 212.680 103.167 C 214.482 103.167,214.667 103.195,214.667 103.467 C 214.667 103.632,214.735 103.838,214.819 103.925 C 214.902 104.012,215.036 104.421,215.115 104.833 L 215.260 105.583 216.489 105.633 C 218.187 105.701,218.188 105.700,217.881 104.636 C 217.740 104.149,217.570 103.675,217.501 103.583 C 217.433 103.492,217.285 103.023,217.172 102.541 C 217.059 102.060,216.907 101.629,216.833 101.583 C 216.760 101.538,216.608 101.107,216.495 100.626 C 216.382 100.144,216.230 99.674,216.157 99.581 C 216.084 99.488,215.933 99.038,215.822 98.581 C 215.710 98.124,215.560 97.674,215.488 97.581 C 215.417 97.488,215.265 97.038,215.152 96.581 C 215.039 96.124,214.901 95.712,214.845 95.667 C 214.790 95.621,214.648 95.210,214.529 94.754 C 214.411 94.298,214.237 93.877,214.143 93.819 C 214.049 93.760,213.978 93.646,213.987 93.565 C 213.995 93.483,213.383 93.396,212.626 93.370 L 211.250 93.324 210.836 94.620 M221.167 99.507 L 221.167 105.680 222.542 105.632 L 223.917 105.583 223.889 102.333 C 223.874 100.546,223.812 98.832,223.751 98.524 C 223.564 97.572,223.958 98.088,224.182 99.086 C 224.294 99.589,224.444 100.000,224.515 100.000 C 224.585 100.000,224.735 100.412,224.848 100.917 C 224.961 101.421,225.108 101.833,225.175 101.833 C 225.242 101.833,225.342 102.077,225.399 102.375 C 225.456 102.673,225.599 103.104,225.718 103.333 C 225.838 103.563,226.034 104.105,226.155 104.538 C 226.440 105.562,226.627 105.695,227.690 105.634 C 228.662 105.578,228.648 105.596,229.352 103.417 C 229.470 103.050,229.633 102.704,229.714 102.648 C 229.795 102.592,229.856 102.479,229.848 102.398 C 229.830 102.193,230.147 101.190,230.431 100.558 C 230.561 100.269,230.667 99.943,230.667 99.833 C 230.667 99.724,230.772 99.397,230.902 99.109 C 231.031 98.820,231.177 98.471,231.225 98.333 C 231.274 98.196,231.269 99.790,231.215 101.875 L 231.115 105.667 232.558 105.667 L 234.000 105.667 234.000 99.500 L 234.000 93.333 232.289 93.333 L 230.579 93.333 230.281 94.020 C 230.118 94.398,229.938 94.941,229.882 95.228 C 229.826 95.515,229.685 95.900,229.569 96.083 C 229.453 96.267,229.306 96.699,229.243 97.044 C 229.180 97.388,229.067 97.708,228.992 97.755 C 228.917 97.801,228.764 98.250,228.651 98.753 C 228.539 99.255,228.389 99.667,228.319 99.667 C 228.248 99.667,228.105 100.078,228.001 100.580 C 227.798 101.557,227.559 101.878,227.400 101.386 C 227.347 101.219,227.240 100.933,227.163 100.750 C 227.086 100.567,226.938 100.117,226.833 99.750 C 226.729 99.383,226.577 98.933,226.495 98.750 C 226.413 98.567,226.116 97.704,225.833 96.833 C 225.551 95.962,225.253 95.100,225.171 94.917 C 225.088 94.733,224.970 94.396,224.907 94.167 C 224.694 93.391,224.550 93.333,222.813 93.333 L 221.167 93.333 221.167 99.507 M238.167 99.500 L 238.167 105.672 242.375 105.628 L 246.583 105.583 246.583 104.583 L 246.583 103.583 243.708 103.538 L 240.833 103.492 240.833 101.996 L 240.833 100.500 243.250 100.500 L 245.667 100.500 245.667 99.375 L 245.667 98.250 243.250 98.300 L 240.833 98.350 240.833 96.925 L 240.833 95.500 243.758 95.500 L 246.683 95.500 246.633 94.458 L 246.583 93.417 242.375 93.372 L 238.167 93.328 238.167 99.500 M249.201 94.292 C 249.283 94.819,249.426 95.550,249.519 95.917 C 249.754 96.846,250.171 98.692,250.225 99.037 C 250.249 99.195,250.321 99.377,250.385 99.440 C 250.448 99.504,250.500 99.714,250.500 99.908 C 250.500 100.102,250.613 100.671,250.751 101.172 C 250.889 101.673,251.083 102.533,251.180 103.083 C 251.278 103.633,251.402 104.196,251.455 104.333 C 251.508 104.471,251.566 104.658,251.585 104.750 C 251.766 105.640,251.812 105.667,253.176 105.667 L 254.480 105.667 254.592 104.917 C 254.654 104.504,254.757 104.167,254.822 104.167 C 254.886 104.167,255.037 103.660,255.158 103.042 C 255.278 102.423,255.431 101.842,255.498 101.750 C 255.564 101.658,255.708 101.117,255.817 100.546 C 256.142 98.842,256.586 98.309,256.757 99.417 C 256.771 99.508,256.824 99.696,256.876 99.833 C 256.972 100.090,257.156 100.779,257.632 102.667 C 257.782 103.263,257.955 103.787,258.016 103.833 C 258.131 103.921,258.419 105.326,258.365 105.542 C 258.347 105.610,258.963 105.667,259.732 105.667 L 261.130 105.667 261.222 105.125 C 261.456 103.745,261.913 101.742,262.010 101.667 C 262.069 101.621,262.213 100.963,262.330 100.205 C 262.446 99.447,262.603 98.789,262.678 98.743 C 262.753 98.697,262.862 98.304,262.919 97.871 C 262.977 97.438,263.069 96.971,263.123 96.833 C 263.177 96.696,263.234 96.471,263.250 96.333 C 263.266 96.196,263.325 95.971,263.382 95.833 C 263.439 95.696,263.554 95.208,263.637 94.750 C 263.720 94.292,263.817 93.804,263.853 93.667 C 263.904 93.464,263.683 93.407,262.693 93.367 C 261.223 93.308,261.063 93.415,260.920 94.550 C 260.860 95.027,260.708 95.754,260.583 96.167 C 260.458 96.579,260.306 97.386,260.245 97.959 C 260.184 98.532,260.073 99.038,259.999 99.084 C 259.925 99.130,259.812 99.547,259.749 100.011 C 259.630 100.876,259.554 100.974,259.445 100.407 C 259.411 100.229,259.341 99.971,259.289 99.833 C 259.121 99.390,258.534 97.268,258.413 96.667 C 258.348 96.346,258.222 95.993,258.133 95.882 C 258.044 95.772,258.016 95.608,258.072 95.519 C 258.127 95.429,258.106 95.315,258.025 95.265 C 257.943 95.215,257.826 94.857,257.765 94.470 C 257.607 93.484,257.428 93.333,256.417 93.333 C 255.395 93.333,255.250 93.466,255.094 94.542 C 255.031 94.977,254.909 95.333,254.823 95.333 C 254.737 95.333,254.683 95.390,254.703 95.458 C 254.760 95.653,254.299 97.730,254.157 97.917 C 254.088 98.008,253.940 98.571,253.827 99.167 C 253.594 100.405,253.167 101.093,253.167 100.230 C 253.167 99.951,253.110 99.666,253.042 99.597 C 252.973 99.528,252.912 99.422,252.907 99.361 C 252.902 99.300,252.797 98.688,252.674 98.000 C 252.551 97.313,252.449 96.656,252.447 96.542 C 252.446 96.427,252.393 96.333,252.330 96.333 C 252.267 96.333,252.118 95.658,252.000 94.833 L 251.785 93.333 250.418 93.333 L 249.050 93.333 249.201 94.292 M280.753 93.691 C 280.700 93.907,280.678 96.671,280.703 99.833 L 280.750 105.583 282.125 105.632 L 283.500 105.680 283.500 103.340 L 283.500 101.000 284.708 101.002 C 286.881 101.006,287.188 101.294,287.291 103.415 C 287.399 105.630,287.430 105.667,289.187 105.667 C 290.715 105.667,291.098 105.439,290.417 104.935 C 290.247 104.809,290.137 104.322,290.075 103.417 C 290.024 102.683,289.948 101.852,289.905 101.569 C 289.820 100.996,288.877 99.834,288.496 99.831 C 288.353 99.830,288.473 99.654,288.780 99.412 C 290.194 98.297,290.398 96.675,289.328 95.042 C 289.013 94.560,288.694 94.167,288.620 94.167 C 288.545 94.167,288.169 94.005,287.784 93.808 C 287.160 93.488,286.741 93.441,283.966 93.373 L 280.849 93.298 280.753 93.691 M294.333 99.500 L 294.333 105.667 295.667 105.667 L 297.000 105.667 297.000 103.167 L 297.000 100.667 297.550 100.667 C 298.027 100.667,298.128 100.744,298.311 101.250 C 298.427 101.571,298.592 101.833,298.677 101.833 C 298.763 101.833,298.833 101.907,298.833 101.997 C 298.833 102.086,299.321 102.884,299.917 103.769 C 300.512 104.654,301.000 105.443,301.000 105.522 C 301.000 105.602,301.750 105.667,302.667 105.667 C 303.735 105.667,304.333 105.603,304.333 105.489 C 304.333 105.294,304.010 104.633,303.850 104.500 C 303.794 104.454,303.524 104.079,303.250 103.667 C 302.975 103.254,302.661 102.822,302.553 102.707 C 302.444 102.592,302.308 102.348,302.250 102.166 C 302.192 101.983,302.074 101.833,301.989 101.833 C 301.903 101.833,301.830 101.740,301.827 101.625 C 301.823 101.510,301.598 101.157,301.327 100.840 C 301.055 100.522,300.833 100.166,300.833 100.048 C 300.833 99.930,300.770 99.833,300.693 99.833 C 300.219 99.833,300.207 99.023,300.673 98.478 C 300.937 98.169,301.156 97.857,301.160 97.785 C 301.167 97.642,301.269 97.504,301.907 96.773 C 302.135 96.511,302.365 96.161,302.418 95.997 C 302.470 95.832,302.622 95.655,302.756 95.604 C 302.890 95.553,303.000 95.402,303.000 95.269 C 303.000 95.136,303.056 95.003,303.125 94.972 C 303.281 94.903,304.167 93.608,304.167 93.449 C 304.167 93.032,300.847 93.348,300.553 93.792 C 300.021 94.598,299.836 94.907,299.627 95.333 C 299.515 95.563,299.328 95.810,299.212 95.883 C 299.095 95.957,299.000 96.128,299.000 96.264 C 299.000 96.399,298.894 96.551,298.765 96.601 C 298.636 96.650,298.488 96.859,298.436 97.064 C 298.305 97.587,297.629 98.333,297.286 98.333 C 297.028 98.333,297.000 98.086,297.000 95.833 L 297.000 93.333 295.667 93.333 L 294.333 93.333 294.333 99.500 M114.849 95.845 C 115.116 96.034,115.333 96.265,115.333 96.357 C 115.333 96.449,115.439 96.630,115.569 96.759 C 116.139 97.329,116.100 101.327,115.514 102.469 C 114.654 104.144,112.690 104.058,111.586 102.297 C 111.288 101.822,111.168 97.951,111.426 97.138 C 111.887 95.686,113.676 95.010,114.849 95.845 M156.333 95.640 C 156.333 95.717,156.509 95.860,156.724 95.958 C 157.855 96.473,158.269 101.589,157.261 102.596 C 157.117 102.740,157.000 102.915,157.000 102.986 C 157.000 103.318,155.860 103.714,155.172 103.622 C 154.002 103.465,153.239 102.499,153.135 101.042 C 153.113 100.744,153.030 100.500,152.950 100.500 C 152.674 100.500,153.054 97.660,153.464 96.648 C 153.813 95.788,156.333 94.902,156.333 95.640 M200.045 95.817 C 200.862 96.167,201.000 96.387,201.000 97.335 C 201.000 98.354,200.466 98.667,198.728 98.667 L 197.333 98.667 197.333 97.083 L 197.333 95.500 198.320 95.500 C 198.919 95.500,199.596 95.624,200.045 95.817 M272.915 95.816 C 273.520 96.171,273.975 96.911,274.030 97.631 C 274.053 97.926,274.130 98.167,274.202 98.167 C 274.396 98.167,274.362 100.963,274.167 101.083 C 274.075 101.140,274.000 101.361,274.000 101.574 C 274.000 102.896,271.840 104.273,271.033 103.467 C 270.923 103.357,270.833 103.319,270.833 103.383 C 270.833 103.448,270.665 103.332,270.458 103.126 C 268.973 101.645,268.973 96.778,270.458 95.979 C 270.665 95.868,270.833 95.715,270.833 95.639 C 270.833 95.385,272.409 95.520,272.915 95.816 M285.583 95.667 C 285.640 95.758,285.822 95.833,285.987 95.833 C 286.940 95.833,287.441 96.986,286.923 97.987 C 286.630 98.555,286.282 98.661,284.708 98.664 L 283.500 98.667 283.500 97.083 L 283.500 95.500 284.490 95.500 C 285.035 95.500,285.527 95.575,285.583 95.667 M213.075 98.289 C 213.139 98.585,213.189 98.865,213.186 98.911 C 213.183 98.957,213.326 99.314,213.503 99.705 C 214.060 100.933,214.012 101.000,212.583 101.000 C 211.241 101.000,211.214 100.982,211.571 100.299 C 211.700 100.050,211.900 99.428,212.015 98.916 C 212.129 98.404,212.285 97.946,212.362 97.899 C 212.438 97.852,212.500 97.651,212.500 97.453 C 212.500 96.936,212.910 97.533,213.075 98.289 " stroke="none" fill="#595959" fill-rule="evenodd"></path><path id="path3" d="M127.375 61.615 C 127.535 61.657,127.798 61.657,127.958 61.615 C 128.119 61.573,127.987 61.539,127.667 61.539 C 127.346 61.539,127.215 61.573,127.375 61.615 M241.958 98.290 C 242.623 98.322,243.710 98.322,244.375 98.290 C 245.040 98.259,244.496 98.233,243.167 98.233 C 241.838 98.233,241.294 98.259,241.958 98.290 M152.885 99.583 C 152.886 100.133,152.917 100.338,152.954 100.039 C 152.991 99.739,152.990 99.289,152.952 99.039 C 152.914 98.788,152.884 99.033,152.885 99.583 " stroke="none" fill="#666666" fill-rule="evenodd"></path><path id="path4" d="M138.625 40.951 C 138.831 40.991,139.169 40.991,139.375 40.951 C 139.581 40.911,139.412 40.879,139.000 40.879 C 138.587 40.879,138.419 40.911,138.625 40.951 M127.741 100.500 C 127.741 103.296,127.763 104.440,127.791 103.042 C 127.819 101.644,127.819 99.356,127.791 97.958 C 127.763 96.560,127.741 97.704,127.741 100.500 M153.053 99.500 C 153.053 100.096,153.084 100.340,153.121 100.042 C 153.158 99.744,153.158 99.256,153.121 98.958 C 153.084 98.660,153.053 98.904,153.053 99.500 M242.217 103.458 C 243.023 103.488,244.298 103.488,245.050 103.457 C 245.802 103.426,245.142 103.401,243.583 103.402 C 242.025 103.402,241.410 103.427,242.217 103.458 " stroke="none" fill="#808080" fill-rule="evenodd"></path></g></svg>